<svg xmlns="http://www.w3.org/2000/svg" xmlns:xlink="http://www.w3.org/1999/xlink" width="500" zoomAndPan="magnify" viewBox="0 0 375 374.999991" height="500" preserveAspectRatio="xMidYMid meet" version="1.0"><defs><g/><clipPath id="4933665601"><path d="M 142.449219 149.636719 L 218.171875 149.636719 L 218.171875 225.363281 L 142.449219 225.363281 Z M 142.449219 149.636719 " clip-rule="nonzero"/></clipPath><clipPath id="fe44205435"><path d="M 180.308594 149.636719 C 159.398438 149.636719 142.449219 166.589844 142.449219 187.5 C 142.449219 208.410156 159.398438 225.363281 180.308594 225.363281 C 201.21875 225.363281 218.171875 208.410156 218.171875 187.5 C 218.171875 166.589844 201.21875 149.636719 180.308594 149.636719 Z M 180.308594 149.636719 " clip-rule="nonzero"/></clipPath><clipPath id="b8bbf6cba1"><path d="M 142.449219 149.636719 L 218.164062 149.636719 L 218.164062 225.351562 L 142.449219 225.351562 Z M 142.449219 149.636719 " clip-rule="nonzero"/></clipPath><clipPath id="ec4a3d6f64"><path d="M 180.304688 149.636719 C 159.398438 149.636719 142.449219 166.585938 142.449219 187.496094 C 142.449219 208.402344 159.398438 225.351562 180.304688 225.351562 C 201.214844 225.351562 218.164062 208.402344 218.164062 187.496094 C 218.164062 166.585938 201.214844 149.636719 180.304688 149.636719 Z M 180.304688 149.636719 " clip-rule="nonzero"/></clipPath><clipPath id="e0958c8e97"><path d="M 155 168.0625 L 205.953125 168.0625 L 205.953125 205.5625 L 155 205.5625 Z M 155 168.0625 " clip-rule="nonzero"/></clipPath></defs><g fill="#000000" fill-opacity="1"><g transform="translate(0.0000045, 198.829803)"><g><path d="M 17.03125 -31.71875 C 21.082031 -31.71875 24.253906 -30.75 26.546875 -28.8125 C 28.847656 -26.882812 30 -24.226562 30 -20.84375 C 30 -17.457031 28.847656 -14.804688 26.546875 -12.890625 C 24.253906 -10.972656 21.082031 -10.015625 17.03125 -10.015625 L 8.515625 -10.015625 L 8.515625 0 L 5.171875 0 L 5.171875 -31.71875 Z M 16.953125 -12.953125 C 20.085938 -12.953125 22.484375 -13.640625 24.140625 -15.015625 C 25.804688 -16.390625 26.640625 -18.332031 26.640625 -20.84375 C 26.640625 -23.40625 25.804688 -25.375 24.140625 -26.75 C 22.484375 -28.125 20.085938 -28.8125 16.953125 -28.8125 L 8.515625 -28.8125 L 8.515625 -12.953125 Z M 16.953125 -12.953125 "/></g></g></g><g fill="#000000" fill-opacity="1"><g transform="translate(32.53925, 198.829803)"><g><path d="M 19.03125 0.265625 C 15.882812 0.265625 13.035156 -0.429688 10.484375 -1.828125 C 7.929688 -3.234375 5.9375 -5.160156 4.5 -7.609375 C 3.070312 -10.054688 2.359375 -12.804688 2.359375 -15.859375 C 2.359375 -18.910156 3.070312 -21.660156 4.5 -24.109375 C 5.9375 -26.554688 7.929688 -28.476562 10.484375 -29.875 C 13.035156 -31.28125 15.882812 -31.984375 19.03125 -31.984375 C 22.175781 -31.984375 25.007812 -31.289062 27.53125 -29.90625 C 30.050781 -28.519531 32.035156 -26.59375 33.484375 -24.125 C 34.929688 -21.664062 35.65625 -18.910156 35.65625 -15.859375 C 35.65625 -12.804688 34.929688 -10.046875 33.484375 -7.578125 C 32.035156 -5.117188 30.050781 -3.195312 27.53125 -1.8125 C 25.007812 -0.425781 22.175781 0.265625 19.03125 0.265625 Z M 19.03125 -2.71875 C 21.539062 -2.71875 23.804688 -3.28125 25.828125 -4.40625 C 27.847656 -5.539062 29.429688 -7.113281 30.578125 -9.125 C 31.734375 -11.132812 32.3125 -13.378906 32.3125 -15.859375 C 32.3125 -18.335938 31.734375 -20.578125 30.578125 -22.578125 C 29.429688 -24.585938 27.847656 -26.160156 25.828125 -27.296875 C 23.804688 -28.429688 21.539062 -29 19.03125 -29 C 16.519531 -29 14.242188 -28.429688 12.203125 -27.296875 C 10.171875 -26.160156 8.570312 -24.585938 7.40625 -22.578125 C 6.238281 -20.578125 5.65625 -18.335938 5.65625 -15.859375 C 5.65625 -13.378906 6.238281 -11.132812 7.40625 -9.125 C 8.570312 -7.113281 10.171875 -5.539062 12.203125 -4.40625 C 14.242188 -3.28125 16.519531 -2.71875 19.03125 -2.71875 Z M 19.03125 -2.71875 "/></g></g></g><g fill="#000000" fill-opacity="1"><g transform="translate(70.562132, 198.829803)"><g><path d="M 15 -14.90625 L 8.515625 -8.34375 L 8.515625 0 L 5.171875 0 L 5.171875 -31.71875 L 8.515625 -31.71875 L 8.515625 -12.546875 L 27.140625 -31.71875 L 31 -31.71875 L 17.265625 -17.359375 L 31.9375 0 L 27.953125 0 Z M 15 -14.90625 "/></g></g></g><g fill="#000000" fill-opacity="1"><g transform="translate(102.784144, 198.829803)"><g><path d="M 27.59375 -2.90625 L 27.59375 0 L 5.171875 0 L 5.171875 -31.71875 L 26.921875 -31.71875 L 26.921875 -28.8125 L 8.515625 -28.8125 L 8.515625 -17.53125 L 24.921875 -17.53125 L 24.921875 -14.6875 L 8.515625 -14.6875 L 8.515625 -2.90625 Z M 27.59375 -2.90625 "/></g></g></g><g clip-path="url(#4933665601)"><g clip-path="url(#fe44205435)"><path fill="#ffffff" d="M 142.449219 149.636719 L 218.171875 149.636719 L 218.171875 225.363281 L 142.449219 225.363281 Z M 142.449219 149.636719 " fill-opacity="1" fill-rule="nonzero"/></g></g><g clip-path="url(#b8bbf6cba1)"><g clip-path="url(#ec4a3d6f64)"><path stroke-linecap="butt" transform="matrix(0.75, 0, 0, 0.75, 142.448141, 149.638291)" fill="none" stroke-linejoin="miter" d="M 50.475402 -0.0020963 C 22.600399 -0.0020963 0.00143734 22.596865 0.00143734 50.477077 C 0.00143734 78.352081 22.600399 100.951042 50.475402 100.951042 C 78.355614 100.951042 100.954575 78.352081 100.954575 50.477077 C 100.954575 22.596865 78.355614 -0.0020963 50.475402 -0.0020963 Z M 50.475402 -0.0020963 " stroke="#000000" stroke-width="14" stroke-opacity="1" stroke-miterlimit="4"/></g></g><g clip-path="url(#e0958c8e97)"><path fill="#000000" d="M 205.125 180.476562 L 191.660156 168.652344 C 191.414062 168.433594 191.125 168.300781 190.796875 168.25 C 190.472656 168.203125 190.15625 168.246094 189.855469 168.382812 C 189.554688 168.519531 189.316406 168.726562 189.136719 169.003906 C 188.957031 169.285156 188.867188 169.589844 188.867188 169.917969 L 188.867188 174.988281 L 170.355469 174.988281 C 170.128906 174.988281 169.914062 175.03125 169.710938 175.117188 C 169.503906 175.203125 169.320312 175.324219 169.164062 175.480469 C 169.007812 175.640625 168.882812 175.824219 168.800781 176.03125 C 168.714844 176.238281 168.671875 176.453125 168.671875 176.675781 L 168.671875 186.8125 C 168.671875 187.035156 168.714844 187.25 168.800781 187.457031 C 168.882812 187.664062 169.007812 187.847656 169.164062 188.007812 C 169.320312 188.164062 169.503906 188.285156 169.710938 188.371094 C 169.914062 188.457031 170.128906 188.5 170.355469 188.5 L 188.867188 188.5 L 188.867188 195.257812 L 170.355469 195.257812 C 170.128906 195.257812 169.914062 195.300781 169.710938 195.386719 C 169.503906 195.472656 169.320312 195.59375 169.164062 195.753906 C 169.007812 195.910156 168.882812 196.09375 168.800781 196.300781 C 168.714844 196.507812 168.671875 196.722656 168.671875 196.945312 L 168.671875 199.988281 L 159.515625 191.878906 L 167.679688 185.34375 L 165.574219 182.742188 L 155.847656 190.5625 C 155.421875 190.898438 155.210938 191.335938 155.207031 191.878906 C 155.195312 192.402344 155.386719 192.835938 155.777344 193.179688 L 169.242188 205.003906 C 169.492188 205.222656 169.777344 205.355469 170.105469 205.40625 C 170.429688 205.453125 170.742188 205.410156 171.042969 205.273438 C 171.351562 205.136719 171.59375 204.925781 171.773438 204.636719 C 171.957031 204.351562 172.042969 204.042969 172.035156 203.703125 L 172.035156 198.636719 L 190.550781 198.636719 C 190.773438 198.636719 190.988281 198.59375 191.195312 198.507812 C 191.398438 198.421875 191.582031 198.300781 191.738281 198.140625 C 191.898438 197.984375 192.019531 197.800781 192.105469 197.59375 C 192.191406 197.386719 192.234375 197.171875 192.234375 196.945312 L 192.234375 186.8125 C 192.234375 186.585938 192.191406 186.371094 192.105469 186.164062 C 192.019531 185.957031 191.898438 185.777344 191.738281 185.617188 C 191.582031 185.457031 191.398438 185.335938 191.195312 185.25 C 190.988281 185.164062 190.773438 185.121094 190.550781 185.121094 L 172.035156 185.121094 L 172.035156 178.367188 L 190.550781 178.367188 C 190.773438 178.367188 190.988281 178.324219 191.195312 178.238281 C 191.398438 178.152344 191.582031 178.03125 191.738281 177.871094 C 191.898438 177.710938 192.019531 177.53125 192.105469 177.324219 C 192.191406 177.117188 192.234375 176.902344 192.234375 176.675781 L 192.234375 173.636719 L 201.390625 181.742188 L 193.226562 188.28125 L 195.328125 190.933594 L 205.074219 183.113281 C 205.265625 182.953125 205.410156 182.757812 205.515625 182.53125 C 205.621094 182.308594 205.671875 182.070312 205.671875 181.820312 C 205.671875 181.570312 205.621094 181.332031 205.515625 181.109375 C 205.410156 180.882812 205.265625 180.6875 205.074219 180.527344 Z M 205.125 180.476562 " fill-opacity="1" fill-rule="nonzero"/></g><g fill="#000000" fill-opacity="1"><g transform="translate(229.749707, 198.829803)"><g><path d="M 13.90625 0.265625 C 11.550781 0.265625 9.289062 -0.109375 7.125 -0.859375 C 4.96875 -1.617188 3.300781 -2.613281 2.125 -3.84375 L 3.4375 -6.4375 C 4.59375 -5.289062 6.117188 -4.359375 8.015625 -3.640625 C 9.921875 -2.929688 11.882812 -2.578125 13.90625 -2.578125 C 16.75 -2.578125 18.878906 -3.097656 20.296875 -4.140625 C 21.710938 -5.179688 22.421875 -6.535156 22.421875 -8.203125 C 22.421875 -9.472656 22.035156 -10.484375 21.265625 -11.234375 C 20.503906 -11.992188 19.5625 -12.578125 18.4375 -12.984375 C 17.320312 -13.390625 15.769531 -13.832031 13.78125 -14.3125 C 11.382812 -14.914062 9.476562 -15.5 8.0625 -16.0625 C 6.644531 -16.625 5.429688 -17.476562 4.421875 -18.625 C 3.410156 -19.769531 2.90625 -21.328125 2.90625 -23.296875 C 2.90625 -24.890625 3.328125 -26.34375 4.171875 -27.65625 C 5.015625 -28.976562 6.3125 -30.03125 8.0625 -30.8125 C 9.8125 -31.59375 11.988281 -31.984375 14.59375 -31.984375 C 16.40625 -31.984375 18.175781 -31.734375 19.90625 -31.234375 C 21.644531 -30.742188 23.148438 -30.0625 24.421875 -29.1875 L 23.296875 -26.5 C 21.960938 -27.382812 20.539062 -28.046875 19.03125 -28.484375 C 17.519531 -28.921875 16.039062 -29.140625 14.59375 -29.140625 C 11.8125 -29.140625 9.71875 -28.601562 8.3125 -27.53125 C 6.90625 -26.457031 6.203125 -25.070312 6.203125 -23.375 C 6.203125 -22.113281 6.585938 -21.097656 7.359375 -20.328125 C 8.128906 -19.554688 9.09375 -18.960938 10.25 -18.546875 C 11.414062 -18.140625 12.984375 -17.695312 14.953125 -17.21875 C 17.273438 -16.644531 19.15625 -16.078125 20.59375 -15.515625 C 22.03125 -14.960938 23.242188 -14.117188 24.234375 -12.984375 C 25.234375 -11.847656 25.734375 -10.3125 25.734375 -8.375 C 25.734375 -6.78125 25.300781 -5.320312 24.4375 -4 C 23.582031 -2.6875 22.265625 -1.644531 20.484375 -0.875 C 18.703125 -0.113281 16.507812 0.265625 13.90625 0.265625 Z M 13.90625 0.265625 "/></g></g></g><g fill="#000000" fill-opacity="1"><g transform="translate(257.621089, 198.829803)"><g><path d="M 48.703125 -31.71875 L 38.015625 0 L 34.484375 0 L 25.1875 -27.046875 L 15.859375 0 L 12.375 0 L 1.671875 -31.71875 L 5.125 -31.71875 L 14.265625 -4.4375 L 23.75 -31.71875 L 26.875 -31.71875 L 36.203125 -4.296875 L 45.5 -31.71875 Z M 48.703125 -31.71875 "/></g></g></g><g fill="#000000" fill-opacity="1"><g transform="translate(307.970806, 198.829803)"><g><path d="M 25.0625 -8.46875 L 7.390625 -8.46875 L 3.578125 0 L 0.09375 0 L 14.59375 -31.71875 L 17.890625 -31.71875 L 32.390625 0 L 28.859375 0 Z M 23.828125 -11.1875 L 16.21875 -28.234375 L 8.609375 -11.1875 Z M 23.828125 -11.1875 "/></g></g></g><g fill="#000000" fill-opacity="1"><g transform="translate(340.464757, 198.829803)"><g><path d="M 17.03125 -31.71875 C 21.082031 -31.71875 24.253906 -30.75 26.546875 -28.8125 C 28.847656 -26.882812 30 -24.226562 30 -20.84375 C 30 -17.457031 28.847656 -14.804688 26.546875 -12.890625 C 24.253906 -10.972656 21.082031 -10.015625 17.03125 -10.015625 L 8.515625 -10.015625 L 8.515625 0 L 5.171875 0 L 5.171875 -31.71875 Z M 16.953125 -12.953125 C 20.085938 -12.953125 22.484375 -13.640625 24.140625 -15.015625 C 25.804688 -16.390625 26.640625 -18.332031 26.640625 -20.84375 C 26.640625 -23.40625 25.804688 -25.375 24.140625 -26.75 C 22.484375 -28.125 20.085938 -28.8125 16.953125 -28.8125 L 8.515625 -28.8125 L 8.515625 -12.953125 Z M 16.953125 -12.953125 "/></g></g></g></svg>