<svg xmlns="http://www.w3.org/2000/svg" xmlns:xlink="http://www.w3.org/1999/xlink" width="500" zoomAndPan="magnify" viewBox="100 100 175 175" height="500" preserveAspectRatio="xMidYMid meet" version="1.0"><defs><g/><clipPath id="87525fc68b"><path d="M 3.738281 149.183594 L 80.238281 149.183594 L 80.238281 225.683594 L 3.738281 225.683594 Z M 3.738281 149.183594 " clip-rule="nonzero"/></clipPath><clipPath id="43fa880029"><path d="M 42.050781 149.183594 C 20.890625 149.183594 3.738281 166.335938 3.738281 187.5 C 3.738281 208.660156 20.890625 225.8125 42.050781 225.8125 C 63.210938 225.8125 80.367188 208.660156 80.367188 187.5 C 80.367188 166.335938 63.210938 149.183594 42.050781 149.183594 Z M 42.050781 149.183594 " clip-rule="nonzero"/></clipPath><clipPath id="63686d00d6"><path d="M 31.519531 176.964844 L 52.519531 176.964844 L 52.519531 197.964844 L 31.519531 197.964844 Z M 31.519531 176.964844 " clip-rule="nonzero"/></clipPath><clipPath id="28c756ece0"><path d="M 42.046875 176.964844 C 36.234375 176.964844 31.519531 181.679688 31.519531 187.496094 C 31.519531 193.3125 36.234375 198.023438 42.046875 198.023438 C 47.863281 198.023438 52.578125 193.3125 52.578125 187.496094 C 52.578125 181.679688 47.863281 176.964844 42.046875 176.964844 Z M 42.046875 176.964844 " clip-rule="nonzero"/></clipPath><clipPath id="1d7f63e1e8"><path d="M 36.109375 183.144531 L 48 183.144531 L 48 192 L 36.109375 192 Z M 36.109375 183.144531 " clip-rule="nonzero"/></clipPath></defs><g fill="#ffffff" fill-opacity="1"><g transform="translate(85.851832, 202.329154)"><g><path d="M 17.25 -32.09375 C 21.34375 -32.09375 24.550781 -31.113281 26.875 -29.15625 C 29.195312 -27.207031 30.359375 -24.519531 30.359375 -21.09375 C 30.359375 -17.664062 29.195312 -14.984375 26.875 -13.046875 C 24.550781 -11.109375 21.34375 -10.140625 17.25 -10.140625 L 8.625 -10.140625 L 8.625 0 L 5.234375 0 L 5.234375 -32.09375 Z M 17.15625 -13.109375 C 20.332031 -13.109375 22.757812 -13.800781 24.4375 -15.1875 C 26.125 -16.582031 26.96875 -18.550781 26.96875 -21.09375 C 26.96875 -23.695312 26.125 -25.691406 24.4375 -27.078125 C 22.757812 -28.472656 20.332031 -29.171875 17.15625 -29.171875 L 8.625 -29.171875 L 8.625 -13.109375 Z M 17.15625 -13.109375 "/></g></g></g><g fill="#ffffff" fill-opacity="1"><g transform="translate(118.781648, 202.329154)"><g><path d="M 19.265625 0.28125 C 16.078125 0.28125 13.191406 -0.425781 10.609375 -1.84375 C 8.023438 -3.269531 6.007812 -5.222656 4.5625 -7.703125 C 3.113281 -10.179688 2.390625 -12.960938 2.390625 -16.046875 C 2.390625 -19.140625 3.113281 -21.921875 4.5625 -24.390625 C 6.007812 -26.867188 8.023438 -28.816406 10.609375 -30.234375 C 13.191406 -31.660156 16.078125 -32.375 19.265625 -32.375 C 22.441406 -32.375 25.304688 -31.671875 27.859375 -30.265625 C 30.410156 -28.859375 32.421875 -26.910156 33.890625 -24.421875 C 35.359375 -21.929688 36.09375 -19.140625 36.09375 -16.046875 C 36.09375 -12.960938 35.359375 -10.171875 33.890625 -7.671875 C 32.421875 -5.179688 30.410156 -3.234375 27.859375 -1.828125 C 25.304688 -0.421875 22.441406 0.28125 19.265625 0.28125 Z M 19.265625 -2.75 C 21.796875 -2.75 24.085938 -3.320312 26.140625 -4.46875 C 28.191406 -5.613281 29.796875 -7.203125 30.953125 -9.234375 C 32.117188 -11.273438 32.703125 -13.546875 32.703125 -16.046875 C 32.703125 -18.554688 32.117188 -20.828125 30.953125 -22.859375 C 29.796875 -24.890625 28.191406 -26.476562 26.140625 -27.625 C 24.085938 -28.769531 21.796875 -29.34375 19.265625 -29.34375 C 16.722656 -29.34375 14.421875 -28.769531 12.359375 -27.625 C 10.296875 -26.476562 8.675781 -24.890625 7.5 -22.859375 C 6.320312 -20.828125 5.734375 -18.554688 5.734375 -16.046875 C 5.734375 -13.546875 6.320312 -11.273438 7.5 -9.234375 C 8.675781 -7.203125 10.296875 -5.613281 12.359375 -4.46875 C 14.421875 -3.320312 16.722656 -2.75 19.265625 -2.75 Z M 19.265625 -2.75 "/></g></g></g><g fill="#ffffff" fill-opacity="1"><g transform="translate(157.260922, 202.329154)"><g><path d="M 15.171875 -15.09375 L 8.625 -8.4375 L 8.625 0 L 5.234375 0 L 5.234375 -32.09375 L 8.625 -32.09375 L 8.625 -12.703125 L 27.46875 -32.09375 L 31.375 -32.09375 L 17.46875 -17.5625 L 32.328125 0 L 28.296875 0 Z M 15.171875 -15.09375 "/></g></g></g><g fill="#ffffff" fill-opacity="1"><g transform="translate(189.869697, 202.329154)"><g><path d="M 27.921875 -2.9375 L 27.921875 0 L 5.234375 0 L 5.234375 -32.09375 L 27.234375 -32.09375 L 27.234375 -29.171875 L 8.625 -29.171875 L 8.625 -17.75 L 25.21875 -17.75 L 25.21875 -14.859375 L 8.625 -14.859375 L 8.625 -2.9375 Z M 27.921875 -2.9375 "/></g></g></g><g clip-path="url(#87525fc68b)"><g clip-path="url(#43fa880029)"><path stroke-linecap="butt" transform="matrix(0.75, 0, 0, 0.75, 3.736334, 149.183779)" fill="none" stroke-linejoin="miter" d="M 51.085933 -0.000247005 C 22.87239 -0.000247005 0.00259656 22.869546 0.00259656 51.088298 C 0.00259656 79.301842 22.87239 102.171635 51.085933 102.171635 C 79.299477 102.171635 102.174478 79.301842 102.174478 51.088298 C 102.174478 22.869546 79.299477 -0.000247005 51.085933 -0.000247005 Z M 51.085933 -0.000247005 " stroke="#ffffff" stroke-width="14" stroke-opacity="1" stroke-miterlimit="4"/></g></g><g fill="#ffffff" fill-opacity="1"><g transform="translate(228.006244, 202.329154)"><g><path d="M 14.078125 0.28125 C 11.691406 0.28125 9.40625 -0.0976562 7.21875 -0.859375 C 5.03125 -1.628906 3.34375 -2.640625 2.15625 -3.890625 L 3.484375 -6.515625 C 4.648438 -5.347656 6.191406 -4.40625 8.109375 -3.6875 C 10.035156 -2.96875 12.023438 -2.609375 14.078125 -2.609375 C 16.953125 -2.609375 19.109375 -3.132812 20.546875 -4.1875 C 21.984375 -5.25 22.703125 -6.617188 22.703125 -8.296875 C 22.703125 -9.585938 22.3125 -10.613281 21.53125 -11.375 C 20.75 -12.132812 19.789062 -12.71875 18.65625 -13.125 C 17.53125 -13.539062 15.957031 -13.992188 13.9375 -14.484375 C 11.519531 -15.097656 9.59375 -15.6875 8.15625 -16.25 C 6.71875 -16.820312 5.488281 -17.6875 4.46875 -18.84375 C 3.445312 -20.007812 2.9375 -21.585938 2.9375 -23.578125 C 2.9375 -25.191406 3.363281 -26.660156 4.21875 -27.984375 C 5.070312 -29.316406 6.382812 -30.378906 8.15625 -31.171875 C 9.9375 -31.972656 12.140625 -32.375 14.765625 -32.375 C 16.597656 -32.375 18.394531 -32.117188 20.15625 -31.609375 C 21.914062 -31.109375 23.4375 -30.414062 24.71875 -29.53125 L 23.578125 -26.828125 C 22.222656 -27.710938 20.78125 -28.375 19.25 -28.8125 C 17.726562 -29.257812 16.234375 -29.484375 14.765625 -29.484375 C 11.953125 -29.484375 9.832031 -28.941406 8.40625 -27.859375 C 6.988281 -26.773438 6.28125 -25.375 6.28125 -23.65625 C 6.28125 -22.375 6.671875 -21.34375 7.453125 -20.5625 C 8.234375 -19.789062 9.210938 -19.195312 10.390625 -18.78125 C 11.566406 -18.363281 13.148438 -17.910156 15.140625 -17.421875 C 17.492188 -16.847656 19.394531 -16.273438 20.84375 -15.703125 C 22.289062 -15.140625 23.519531 -14.285156 24.53125 -13.140625 C 25.539062 -11.992188 26.046875 -10.441406 26.046875 -8.484375 C 26.046875 -6.859375 25.609375 -5.378906 24.734375 -4.046875 C 23.867188 -2.722656 22.53125 -1.671875 20.71875 -0.890625 C 18.914062 -0.109375 16.703125 0.28125 14.078125 0.28125 Z M 14.078125 0.28125 "/></g></g></g><g fill="#ffffff" fill-opacity="1"><g transform="translate(256.212169, 202.329154)"><g><path d="M 49.296875 -32.09375 L 38.46875 0 L 34.90625 0 L 25.5 -27.375 L 16.046875 0 L 12.515625 0 L 1.703125 -32.09375 L 5.1875 -32.09375 L 14.453125 -4.5 L 24.03125 -32.09375 L 27.1875 -32.09375 L 36.640625 -4.359375 L 46.046875 -32.09375 Z M 49.296875 -32.09375 "/></g></g></g><g fill="#ffffff" fill-opacity="1"><g transform="translate(307.166236, 202.329154)"><g><path d="M 25.359375 -8.578125 L 7.46875 -8.578125 L 3.625 0 L 0.09375 0 L 14.765625 -32.09375 L 18.109375 -32.09375 L 32.796875 0 L 29.21875 0 Z M 24.125 -11.328125 L 16.421875 -28.578125 L 8.71875 -11.328125 Z M 24.125 -11.328125 "/></g></g></g><g fill="#ffffff" fill-opacity="1"><g transform="translate(340.050215, 202.329154)"><g><path d="M 17.25 -32.09375 C 21.34375 -32.09375 24.550781 -31.113281 26.875 -29.15625 C 29.195312 -27.207031 30.359375 -24.519531 30.359375 -21.09375 C 30.359375 -17.664062 29.195312 -14.984375 26.875 -13.046875 C 24.550781 -11.109375 21.34375 -10.140625 17.25 -10.140625 L 8.625 -10.140625 L 8.625 0 L 5.234375 0 L 5.234375 -32.09375 Z M 17.15625 -13.109375 C 20.332031 -13.109375 22.757812 -13.800781 24.4375 -15.1875 C 26.125 -16.582031 26.96875 -18.550781 26.96875 -21.09375 C 26.96875 -23.695312 26.125 -25.691406 24.4375 -27.078125 C 22.757812 -28.472656 20.332031 -29.171875 17.15625 -29.171875 L 8.625 -29.171875 L 8.625 -13.109375 Z M 17.15625 -13.109375 "/></g></g></g><g clip-path="url(#63686d00d6)"><g clip-path="url(#28c756ece0)"><path stroke-linecap="butt" transform="matrix(0.75, 0, 0, 0.75, 31.519089, 176.966532)" fill="none" stroke-linejoin="miter" d="M 14.037048 -0.00225151 C 6.287047 -0.00225151 0.000589146 6.284207 0.000589146 14.039415 C 0.000589146 21.794624 6.287047 28.075874 14.037048 28.075874 C 21.792256 28.075874 28.078714 21.794624 28.078714 14.039415 C 28.078714 6.284207 21.792256 -0.00225151 14.037048 -0.00225151 Z M 14.037048 -0.00225151 " stroke="#ffffff" stroke-width="8" stroke-opacity="1" stroke-miterlimit="4"/></g></g><g clip-path="url(#1d7f63e1e8)"><path fill="#ffffff" d="M 47.800781 186.027344 L 44.660156 183.285156 C 44.535156 183.171875 44.394531 183.152344 44.242188 183.21875 C 44.089844 183.289062 44.011719 183.410156 44.011719 183.578125 L 44.011719 184.753906 L 39.695312 184.753906 C 39.589844 184.753906 39.496094 184.792969 39.417969 184.867188 C 39.34375 184.945312 39.304688 185.039062 39.304688 185.144531 L 39.304688 187.5 C 39.304688 187.609375 39.34375 187.699219 39.417969 187.777344 C 39.496094 187.851562 39.589844 187.890625 39.695312 187.890625 L 44.011719 187.890625 L 44.011719 189.460938 L 39.695312 189.460938 C 39.589844 189.460938 39.496094 189.5 39.417969 189.574219 C 39.34375 189.652344 39.304688 189.746094 39.304688 189.851562 L 39.304688 190.558594 L 37.171875 188.675781 L 39.074219 187.160156 L 38.582031 186.554688 L 36.316406 188.371094 C 36.21875 188.449219 36.167969 188.550781 36.167969 188.675781 C 36.164062 188.796875 36.207031 188.898438 36.300781 188.976562 L 39.4375 191.722656 C 39.5625 191.835938 39.703125 191.855469 39.859375 191.785156 C 40.015625 191.714844 40.09375 191.59375 40.089844 191.421875 L 40.089844 190.246094 L 44.402344 190.246094 C 44.511719 190.246094 44.605469 190.207031 44.679688 190.128906 C 44.757812 190.054688 44.796875 189.960938 44.796875 189.851562 L 44.796875 187.5 C 44.796875 187.390625 44.757812 187.296875 44.679688 187.222656 C 44.605469 187.144531 44.511719 187.105469 44.402344 187.105469 L 40.089844 187.105469 L 40.089844 185.539062 L 44.402344 185.539062 C 44.511719 185.539062 44.605469 185.5 44.679688 185.421875 C 44.757812 185.347656 44.796875 185.253906 44.796875 185.144531 L 44.796875 184.441406 L 46.929688 186.324219 L 45.027344 187.839844 L 45.515625 188.457031 L 47.789062 186.640625 C 47.882812 186.5625 47.925781 186.460938 47.925781 186.339844 C 47.925781 186.21875 47.882812 186.117188 47.789062 186.039062 Z M 47.800781 186.027344 " fill-opacity="1" fill-rule="nonzero"/></g><path stroke-linecap="butt" transform="matrix(0.75, 0, 0, 0.75, 52.586003, 185.999988)" fill="none" stroke-linejoin="miter" d="M -0.0000868625 2.000016 L 37.041582 2.000016 " stroke="#ffffff" stroke-width="4" stroke-opacity="1" stroke-miterlimit="4"/><path stroke-linecap="butt" transform="matrix(0.75, 0, 0, 0.75, 4.433655, 185.999988)" fill="none" stroke-linejoin="miter" d="M -0.0000823185 2.000016 L 36.114503 2.000016 " stroke="#ffffff" stroke-width="4" stroke-opacity="1" stroke-miterlimit="4"/></svg>